Coordinates
version=1
nRows=27
nColumns=12
inDegrees=yes

Units are S.I. units (second, meters, Newtons, ...)
Angles are in degrees

endheader
time	SC_y	SC_z	SC_x	AC_y	AC_z	AC_x	GH_y	GH_z	GH_yy	EL_x	PS_y
       0.0              -38.75          29.05          48.45          44.58         -10.68         -1.353         -51.52          24.87         -10.12          48.83          115.3
   0.01433              -38.75          29.05          48.45          44.58         -10.68          -1.35         -51.51          24.87          -10.1          48.83          115.3
   0.02865              -38.75          29.05          48.45          44.58         -10.68         -1.348         -51.49          24.87         -10.08          48.84          115.3
   0.04298              -38.75          29.05          48.45          44.57         -10.68         -1.345         -51.48          24.87         -10.06          48.84          115.3
    0.0573              -38.75          29.05          48.44          44.57         -10.68         -1.342         -51.46          24.87         -10.03          48.84          115.3
   0.07163              -38.75          29.04          48.44          44.57         -10.68         -1.339         -51.44          24.87          -10.0          48.85          115.3
   0.08595              -38.75          29.04          48.44          44.57         -10.67         -1.335         -51.42          24.87         -9.974          48.85          115.3
    0.1003              -38.75          29.04          48.43          44.56         -10.67         -1.332          -51.4          24.87         -9.943          48.86          115.3
    0.1146              -38.75          29.04          48.43          44.56         -10.67         -1.328         -51.38          24.86          -9.91          48.86          115.3
    0.1289              -38.75          29.04          48.43          44.56         -10.67         -1.324         -51.36          24.86         -9.874          48.86          115.3
    0.1433              -38.75          29.04          48.42          44.55         -10.67         -1.319         -51.33          24.86         -9.835          48.87          115.3
    0.1576              -38.76          29.04          48.42          44.55         -10.67         -1.314          -51.3          24.86         -9.794          48.88          115.3
    0.1719              -38.76          29.04          48.42          44.55         -10.66         -1.309         -51.27          24.86         -9.749          48.88          115.3
    0.1862              -38.76          29.04          48.41          44.54         -10.66         -1.304         -51.24          24.86         -9.701          48.89          115.3
    0.2006              -38.76          29.04          48.41          44.54         -10.66         -1.297         -51.21          24.86         -9.649           48.9          115.3
    0.2149              -38.76          29.04           48.4          44.53         -10.66         -1.291         -51.17          24.85         -9.593           48.9          115.3
    0.2292              -38.76          29.04           48.4          44.53         -10.65         -1.284         -51.13          24.85         -9.531          48.91          115.3
    0.2435              -38.77          29.04          48.39          44.52         -10.65         -1.276         -51.09          24.85         -9.464          48.92          115.3
    0.2579              -38.77          29.04          48.38          44.52         -10.65         -1.268         -51.04          24.85         -9.391          48.93          115.3
    0.2722              -38.77          29.04          48.37          44.51         -10.64         -1.258         -50.98          24.84         -9.311          48.94          115.3
    0.2865              -38.77          29.04          48.37           44.5         -10.64         -1.248         -50.93          24.84         -9.223          48.96          115.3
    0.3008              -38.78          29.04          48.36          44.49         -10.63         -1.237         -50.86          24.84         -9.127          48.97          115.2
    0.3152              -38.78          29.03          48.35          44.49         -10.63         -1.224         -50.79          24.84          -9.02          48.99          115.2
    0.3295              -38.78          29.03          48.34          44.47         -10.62         -1.211         -50.71          24.83         -8.902           49.0          115.2
    0.3438              -38.79          29.03          48.32          44.46         -10.61         -1.195         -50.63          24.83          -8.77          49.02          115.2
    0.3581              -38.79          29.03          48.31          44.45         -10.61         -1.178         -50.53          24.82         -8.623          49.04          115.2
    0.3725               -38.8          29.03          48.29          44.44          -10.6         -1.159         -50.42          24.82         -8.459          49.07          115.2
